<svg width="39" height="42" viewBox="0 0 39 42" fill="none" xmlns="http://www.w3.org/2000/svg">
<path d="M2.55989 41.9992C2.08402 41.9992 1.62764 41.8148 1.29115 41.4867C0.954664 41.1585 0.765625 40.7133 0.765625 40.2492V1.74922C0.765766 1.44192 0.848868 1.14008 1.00657 0.874054C1.16428 0.608025 1.39102 0.387188 1.664 0.233755C1.93699 0.0803207 2.24658 -0.00029976 2.56165 8.37524e-07C2.87671 0.000301435 3.18614 0.0815132 3.45882 0.235468L37.5499 19.4855C37.8218 19.6393 38.0475 19.8601 38.2044 20.1258C38.3613 20.3914 38.4438 20.6926 38.4438 20.9992C38.4438 21.3058 38.3613 21.607 38.2044 21.8727C38.0475 22.1383 37.8218 22.3591 37.5499 22.513L3.45882 41.763C3.18577 41.9176 2.87565 41.9991 2.55989 41.9992Z" fill="white"/>
</svg>
